<svg height="512" viewBox="0 0 64 64" width="512" xmlns="http://www.w3.org/2000/svg" data-name="Layer 1"><path d="m32 0a32 32 0 1 0 32 32 32 32 0 0 0 -32-32zm0 63a31 31 0 1 1 31-31 31.05 31.05 0 0 1 -31 31z" fill="#010101"/><path d="m32 1a31 31 0 1 0 31 31 31 31 0 0 0 -31-31zm0 57.26a26.25 26.25 0 1 1 26.25-26.26 26.28 26.28 0 0 1 -26.25 26.25z" fill="#faea6a"/><path d="m32 5.75a26.25 26.25 0 1 0 26.25 26.25 26.29 26.29 0 0 0 -26.25-26.25zm0 51.52a25.27 25.27 0 1 1 25.27-25.27 25.3 25.3 0 0 1 -25.27 25.27z" fill="#010101"/><path d="m32 6.74a25.27 25.27 0 1 0 25.27 25.26 25.29 25.29 0 0 0 -25.27-25.26zm-13.06 25.68a.56.56 0 0 1 .14-.3l12.75-20.86a.41.41 0 0 1 .16-.16h.23a.37.37 0 0 1 .21.06.65.65 0 0 1 .16.17l12.41 20.81v.1a.22.22 0 0 1 0 .08.41.41 0 0 1 0 .11v.05a.5.5 0 0 1 -.14.15l-12.47 7.57a.48.48 0 0 1 -.23.07.57.57 0 0 1 -.22-.07l-.13-.08-12.57-7.2a.44.44 0 0 1 -.23-.3.38.38 0 0 1 0-.1zm26.15 2.64-12.69 17.71a.5.5 0 0 1 -.07.08.47.47 0 0 1 -.33.15h-.15a.44.44 0 0 1 -.22-.16l-12.72-17.78a.49.49 0 0 1 0-.62.5.5 0 0 1 .61-.09l12.48 7.41 12.44-7.41a.52.52 0 0 1 .62.09.5.5 0 0 1 .03.62z" fill="#fbac18"/><path d="m45.05 32.28v-.1l-12.37-20.9a.65.65 0 0 0 -.16-.17.37.37 0 0 0 -.21-.06h-.23a.41.41 0 0 0 -.16.16l-12.84 20.91a.56.56 0 0 0 -.14.3v.11a.38.38 0 0 0 0 .1.44.44 0 0 0 .23.3l12.57 7.2.13.08a.57.57 0 0 0 .22.07.48.48 0 0 0 .23-.07l12.4-7.37a.5.5 0 0 0 .14-.15s0 0 0-.05a.41.41 0 0 0 0-.11.22.22 0 0 0 .19-.25zm-13.4 6.66-11.19-6.41 11.32-5.21zm-10.93-7.61 11-18.07v13zm22.62-.08-10.57-5v-12.91zm-10.71 7.66.13-11.58 10.77 5.11z" fill="#010101"/><path d="m31.78 27.32-.13 11.62-11.19-6.41z" fill="#faea6a"/><path d="m31.78 26.24-11.06 5.09 11.04-18.07z" fill="#ffd21b"/><path d="m43.34 31.25-10.57-5.01-.03-12.91z" fill="#faea6a"/><path d="m43.53 32.44-10.9 6.47.13-11.58z" fill="#ffd21b"/><path d="m45.06 34.44a.52.52 0 0 0 -.62-.09l-12.44 7.41-12.44-7.41a.5.5 0 0 0 -.61.09.49.49 0 0 0 0 .62l12.65 17.71a.44.44 0 0 0 .22.16l.18.07a.47.47 0 0 0 .26-.08.5.5 0 0 0 .07-.08l12.76-17.78a.5.5 0 0 0 -.03-.62zm-13.55 16.56-10.43-14.59 10.43 6.2zm1 0v-8.39l10.43-6.2z" fill="#010101"/><path d="m42.92 36.41-10.43 14.55v-8.35z" fill="#ffd21b"/><path d="m31.51 42.61v8.35l-10.43-14.55z" fill="#faea6a"/></svg>