<svg height="512" viewBox="0 0 60 60" width="512" xmlns="http://www.w3.org/2000/svg"><g id="Icons"><circle cx="30" cy="30" fill="#e8edfc" r="29"/><path d="m30 1q-.755 0-1.5.038a29 29 0 0 1 0 57.924q.746.038 1.5.038a29 29 0 0 0 0-58z" fill="#cad9fc"/><circle cx="30" cy="30" fill="#c6d8fb" r="25"/><path d="m30 5c-.5 0-1 .019-1.5.049a25 25 0 0 1 0 49.9c.5.03 1 .049 1.5.049a25 25 0 0 0 0-49.998z" fill="#a4c3fd"/><path d="m29.124 9.492-11.97 19.5a1.044 1.044 0 0 0 .336 1.431l11.97 7.427a1.025 1.025 0 0 0 1.08 0l11.97-7.427a1.044 1.044 0 0 0 .336-1.431l-11.97-19.5a1.026 1.026 0 0 0 -1.752 0z" fill="#e8edfc"/><path d="m42.846 28.988-11.97-19.5a1.026 1.026 0 0 0 -1.752 0l-.624 1.021 11.346 18.479a1.044 1.044 0 0 1 -.336 1.431l-11.01 6.831.96.6a1.025 1.025 0 0 0 1.08 0l11.97-7.427a1.044 1.044 0 0 0 .336-1.435z" fill="#cad9fc"/><path d="m40.247 38.086-9.112 12.342a1.412 1.412 0 0 1 -2.27 0l-9.112-12.342a.685.685 0 0 1 .914-.987l6.683 4.141a5.068 5.068 0 0 0 5.3 0l6.683-4.14a.685.685 0 0 1 .914.986z" fill="#e8edfc"/><path d="m39.333 37.1-2.5 1.551-8.333 11.282.365.495a1.412 1.412 0 0 0 2.27 0l9.112-12.342a.685.685 0 0 0 -.914-.986z" fill="#cad9fc"/></g><g id="Icons_copy_2" data-name="Icons copy 2"><path d="m31.5 58.962a29 29 0 0 1 0-57.924 29 29 0 1 0 0 57.924z" fill="#fff"/></g><g id="Icons_copy" data-name="Icons copy"><path d="m1.154 21.832 1.925.544-.479 1.869c-.12.632-.2 1.272-.3 1.907l-.147.954-.153 2.894h-2l.16-3.1.155-1.023c.109-.681.2-1.366.325-2.043z" fill="#fff"/><g fill="#428dff"><path d="m1.342 27.01a1 1 0 0 1 -.01-2h.01a1 1 0 0 1 0 2z"/><path d="m30 60a30 30 0 1 0 -18.076-53.9 30.392 30.392 0 0 0 -6.685 6.976 31.042 31.042 0 0 0 -4.085 8.76 1 1 0 0 0 1.925.544 29 29 0 0 1 3.81-8.18 28.232 28.232 0 0 1 23.111-12.2 28 28 0 1 1 -28 28 1 1 0 0 0 -2 0 30.034 30.034 0 0 0 30 30z"/><path d="m30 56a26 26 0 1 0 -26-26 26.03 26.03 0 0 0 26 26zm0-50a24 24 0 1 1 -24 24 24.028 24.028 0 0 1 24-24z"/><path d="m16.963 31.269 11.97 7.431a2.013 2.013 0 0 0 2.134 0l11.97-7.427a2.048 2.048 0 0 0 .661-2.8l-11.97-19.504a2.026 2.026 0 0 0 -3.456 0l-11.972 19.496a2.047 2.047 0 0 0 .663 2.804zm2.2-1.032 9.837-3.781v9.923zm11.837 6.133v-9.914l9.877 3.8zm10.156-8.152-10.156-3.905v-12.7zm-12.156-16.612v12.707l-10.213 3.927z"/><path d="m38.807 36.249-6.679 4.138a4.136 4.136 0 0 1 -4.251 0l-6.684-4.141a1.685 1.685 0 0 0 -2.245 2.431l9.113 12.341a2.41 2.41 0 0 0 3.878 0l9.113-12.338a1.685 1.685 0 0 0 -2.245-2.431zm-17.275 2.563 5.3 3.281a6.011 6.011 0 0 0 2.172.79v6.044zm9.468 10.115v-6.045a6.015 6.015 0 0 0 2.177-.792l5.291-3.278z"/></g></g></svg>